<svg width="192" height="192" viewBox="0 0 192 192" fill="none" xmlns="http://www.w3.org/2000/svg">
  <rect width="192" height="192" fill="white"/>
  <path d="M96 15C96 15 60 26.25 37.5 26.25C37.5 26.25 33.75 90 37.5 127.5C41.25 165 96 180 96 180C96 180 150.75 165 154.5 127.5C158.25 90 154.5 26.25 154.5 26.25C132 26.25 96 15 96 15Z" fill="#1E88E5"/>
  <path d="M96 30C96 30 67.5 39.375 48.75 39.375C48.75 39.375 45.75 93.75 48.75 123.75C51.75 153.75 96 166.875 96 166.875C96 166.875 140.25 153.75 143.25 123.75C146.25 93.75 143.25 39.375 143.25 39.375C124.5 39.375 96 30 96 30Z" fill="#0D47A1"/>
  <g transform="translate(96, 96)">
    <path d="M-26.25 -30 L-26.25 30 L-1.875 26.25 L-1.875 -26.25 Z" fill="white"/>
    <path d="M26.25 -30 L26.25 30 L1.875 26.25 L1.875 -26.25 Z" fill="white"/>
    <rect x="-1.875" y="-26.25" width="3.75" height="56.25" fill="#E3F2FD"/>
    <line x1="-18.75" y1="-15" x2="-7.5" y2="-15" stroke="#0D47A1" stroke-width="1"/>
    <line x1="-18.75" y1="-3.75" x2="-7.5" y2="-3.75" stroke="#0D47A1" stroke-width="1"/>
    <line x1="-18.75" y1="7.5" x2="-7.5" y2="7.5" stroke="#0D47A1" stroke-width="1"/>
    <line x1="18.75" y1="-15" x2="7.5" y2="-15" stroke="#0D47A1" stroke-width="1"/>
    <line x1="18.75" y1="-3.75" x2="7.5" y2="-3.75" stroke="#0D47A1" stroke-width="1"/>
    <line x1="18.75" y1="7.5" x2="7.5" y2="7.5" stroke="#0D47A1" stroke-width="1"/>
  </g>
</svg>
